<svg width="512" height="512" viewBox="0 0 512 512" fill="none" xmlns="http://www.w3.org/2000/svg">
<rect width="512" height="512" fill="white"/>
<path fill-rule="evenodd" clip-rule="evenodd" d="M124.569 163.152L165.611 158.365L189.839 128.207H338.194L371.554 170.301L461 181.607L460.998 239.403L426.664 297.205V239.412L426.666 239.409L337.217 228.102L303.862 186.01L154.433 186.013L133.748 221.95L90.2896 226.922L90.2305 226.92L124.569 163.152Z" fill="#F07C00"/>
<path fill-rule="evenodd" clip-rule="evenodd" d="M121.175 243.808H269.533L302.89 285.9L392.338 297.209V355.007H358.697C357.47 371.111 344.013 383.793 327.596 383.793C311.176 383.793 297.725 371.111 296.495 355.007H152.531C151.303 371.111 137.847 383.793 121.43 383.793C105.011 383.793 91.5554 371.111 90.3267 355.007H51.144V291.24L96.9477 285.9L121.175 243.808Z" fill="#222426"/>
</svg>
